Coordinates
version=1
nRows=24
nColumns=22
inDegrees=yes

Units are S.I. units (second, meters, Newtons, ...)
If the header above contains a line with 'inDegrees', this indicates whether rotational values are in degrees (yes) or radians (no).

endheader
time	pelvis_tilt	pelvis_list	pelvis_rotation	pelvis_tx	pelvis_ty	pelvis_tz	hip_flexion_r	hip_adduction_r	hip_rotation_r	knee_angle_r	ankle_angle_r	subtalar_angle_r	hip_flexion_l	hip_adduction_l	hip_rotation_l	knee_angle_l	ankle_angle_l	subtalar_angle_l	lumbar_extension	lumbar_bending	lumbar_rotation
      0.01000000	     -7.76059083	     -0.09183721	    -14.90100399	     -1.05899061	      0.88563924	     -0.57068726	      9.80332661	     -2.67030937	      7.22165603	     -8.71278328	     10.41759071	     -2.16801669	      6.34873913	     -5.60630383	    -11.11732070	     -9.00796526	     13.25642574	      7.73589801	      2.68617882	      0.97053099	     10.86129474
      0.02000000	     -7.75475910	     -0.08126717	    -14.89380315	     -1.05893515	      0.88563250	     -0.57060548	      9.80356143	     -2.67677607	      7.22750377	     -8.73286215	     10.43653184	     -2.17672227	      6.33958956	     -5.59709882	    -11.12182341	     -9.00382513	     13.25540139	      7.74214181	      2.68905917	      0.95656355	     10.81746668
      0.03000000	     -7.74969213	     -0.07811938	    -14.88578861	     -1.05888967	      0.88562301	     -0.57050672	      9.80577943	     -2.67358564	      7.22838224	     -8.75899703	     10.46082657	     -2.18778806	      6.33247115	     -5.59808265	    -11.11003359	     -9.00478029	     13.25763261	      7.74754562	      2.68771144	      0.94996573	     10.77917783
      0.04000000	     -7.74846397	     -0.07561254	    -14.88377012	     -1.05881016	      0.88561331	     -0.57039106	      9.80138768	     -2.66860492	      7.22863357	     -8.76629125	     10.46309990	     -2.18914618	      6.32645052	     -5.60122365	    -11.10727148	     -9.00921178	     13.25795791	      7.74790677	      2.69601192	      0.94612714	     10.77371039
      0.05000000	     -7.74008245	     -0.08431632	    -14.87152316	     -1.05877789	      0.88561044	     -0.57028361	      9.80665871	     -2.65169333	      7.23041115	     -8.81222692	     10.49559235	     -2.20343571	      6.31716442	     -5.61558020	    -11.08452669	     -9.01633553	     13.26773572	      7.75016355	      2.67977395	      0.95438606	     10.71295109
      0.06000000	     -7.72915897	     -0.10300552	    -14.84937210	     -1.05871426	      0.88561016	     -0.57019274	      9.80213428	     -2.62868982	      7.19015989	     -8.85696059	     10.54148287	     -2.23201476	      6.31069678	     -5.63907192	    -11.04136551	     -9.04116859	     13.28447971	      7.75093298	      2.66305405	      0.97273069	     10.68722731
      0.07000000	     -7.72088116	     -0.11292674	    -14.84169132	     -1.05867266	      0.88560829	     -0.57006501	      9.79879332	     -2.60986152	      7.18366431	     -8.88450690	     10.55482085	     -2.24922093	      6.30404272	     -5.65701046	    -11.01796650	     -9.05944275	     13.29403318	      7.74850196	      2.64627748	      0.97926488	     10.66251501
      0.08000000	     -7.70895539	     -0.12794556	    -14.83251655	     -1.05861451	      0.88561223	     -0.56995482	      9.78858311	     -2.58870604	      7.17245906	     -8.91297476	     10.57630227	     -2.26580121	      6.29646119	     -5.67838794	    -10.98713755	     -9.08726356	     13.30377525	      7.74361523	      2.62570105	      0.99306160	     10.66611996
      0.09000000	     -7.69383131	     -0.14529707	    -14.82546715	     -1.05856622	      0.88561648	     -0.56985610	      9.77929147	     -2.56627225	      7.16630989	     -8.94868080	     10.59748448	     -2.28334969	      6.28572174	     -5.70065378	    -10.95840608	     -9.11642179	     13.31900401	      7.73585584	      2.59665652	      1.01162710	     10.66504599
      0.10000000	     -7.67899259	     -0.16072615	    -14.81966822	     -1.05851764	      0.88561982	     -0.56976731	      9.76933672	     -2.54635473	      7.15894902	     -8.97945313	     10.61857965	     -2.29990792	      6.27764054	     -5.72005304	    -10.93038165	     -9.14920455	     13.33367535	      7.72685998	      2.56811207	      1.02874362	     10.68291037
      0.11000000	     -7.65890603	     -0.18643119	    -14.81526512	     -1.05846094	      0.88562604	     -0.56968285	      9.75772515	     -2.51608600	      7.14418422	     -9.02529153	     10.65388746	     -2.33789103	      6.26222771	     -5.74919700	    -10.91649231	     -9.18463798	     13.37228780	      7.70384517	      2.53024809	      1.05865353	     10.69091736
      0.12000000	     -7.64749096	     -0.19052458	    -14.81326688	     -1.05842688	      0.88562206	     -0.56961867	      9.75418225	     -2.50822174	      7.15178901	     -9.05007439	     10.66250240	     -2.34829509	      6.26520265	     -5.75618193	    -10.88565552	     -9.22271444	     13.37460996	      7.69839894	      2.50534070	      1.06651845	     10.72844278
      0.13000000	     -7.63348566	     -0.19918248	    -14.81468489	     -1.05840077	      0.88561927	     -0.56955936	      9.75618507	     -2.49491112	      7.16002434	     -9.09252833	     10.68264492	     -2.36191746	      6.26675682	     -5.76708402	    -10.86113142	     -9.26554622	     13.38988698	      7.69051562	      2.47337112	      1.07977266	     10.76909406
      0.14000000	     -7.62122998	     -0.20737408	    -14.81932246	     -1.05836915	      0.88561285	     -0.56950550	      9.76309374	     -2.48164059	      7.16579425	     -9.14030884	     10.70927358	     -2.37776481	      6.27015483	     -5.77776701	    -10.84804949	     -9.30901336	     13.41262971	      7.68153207	      2.44333019	      1.09412079	     10.81478956
      0.15000000	     -7.61561997	     -0.21499871	    -14.83741382	     -1.05833249	      0.88558638	     -0.56942747	      9.79132469	     -2.46272003	      7.17665079	     -9.21569245	     10.76071226	     -2.41675272	      6.27997679	     -5.79282618	    -10.87872592	     -9.35788874	     13.46357415	      7.66074893	      2.42363472	      1.11228102	     10.85887505
      0.16000000	     -7.61174225	     -0.21259112	    -14.83866663	     -1.05828068	      0.88557462	     -0.56939323	      9.79649071	     -2.46206243	      7.18370069	     -9.23881602	     10.76853320	     -2.42615177	      6.29078297	     -5.79161126	    -10.85900806	     -9.39250755	     13.46593738	      7.65745780	      2.40793420	      1.11769039	     10.90686355
      0.17000000	     -7.60601321	     -0.21042475	    -14.84713549	     -1.05823695	      0.88555884	     -0.56935540	      9.81363533	     -2.45959982	      7.19542203	     -9.28654981	     10.78918341	     -2.43995790	      6.29970409	     -5.79178186	    -10.85183248	     -9.43139654	     13.48363978	      7.65114807	      2.38801579	      1.12486579	     10.95892351
      0.18000000	     -7.60633804	     -0.20388914	    -14.86256212	     -1.05818169	      0.88553126	     -0.56931150	      9.84373726	     -2.45773832	      7.20853872	     -9.34660372	     10.82472652	     -2.45982787	      6.31140705	     -5.78833441	    -10.86727781	     -9.46457901	     13.51172612	      7.64108764	      2.37675980	      1.12881840	     11.01153311
      0.19000000	     -7.60985354	     -0.19940554	    -14.85969362	     -1.05805541	      0.88551222	     -0.56930709	      9.84369268	     -2.46232167	      7.21124086	     -9.35357585	     10.82677515	     -2.46147677	      6.31086621	     -5.78165825	    -10.86891547	     -9.46832869	     13.51296188	      7.64051181	      2.37737224	      1.14124905	     11.01708589
      0.20000000	     -7.62804037	     -0.16706459	    -14.89403221	     -1.05802260	      0.88543820	     -0.56925164	      9.92934800	     -2.47775416	      7.24218216	     -9.46403472	     10.89937505	     -2.50108291	      6.34184998	     -5.75874340	    -10.91738628	     -9.49604471	     13.55118054	      7.62418883	      2.38970594	      1.12338471	     11.08441841
      0.21000000	     -7.63372301	     -0.16273988	    -14.88486923	     -1.05790224	      0.88541649	     -0.56926776	      9.93033893	     -2.48311981	      7.24462391	     -9.46809947	     10.89998852	     -2.50225045	      6.34366664	     -5.75211332	    -10.91745208	     -9.49715349	     13.55094190	      7.62412943	      2.38654575	      1.13451286	     11.09251092
      0.22000000	     -7.66792786	     -0.11371966	    -14.89885026	     -1.05784312	      0.88532164	     -0.56926132	     10.02549065	     -2.51840718	      7.25946084	     -9.56200524	     10.95663275	     -2.53325947	      6.38456179	     -5.70901631	    -10.92368377	     -9.49600297	     13.55769455	      7.62048700	      2.42231242	      1.10204629	     11.14112759
      0.23000000	     -7.67479366	     -0.10956041	    -14.88770033	     -1.05770877	      0.88529968	     -0.56928423	     10.02648918	     -2.52464283	      7.26192977	     -9.56639109	     10.95769962	     -2.53398706	      6.38534879	     -5.70317720	    -10.92533172	     -9.49533327	     13.55784511	      7.62049187	      2.41927548	      1.11363256	     11.14657668
      0.24000000	     -7.70315442	     -0.06773436	    -14.88334903	     -1.05760392	      0.88521859	     -0.56930499	     10.10199451	     -2.55871153	      7.25603588	     -9.64896349	     11.00820152	     -2.54854903	      6.40652343	     -5.66060351	    -10.90459562	     -9.46952004	     13.57240111	      7.62190051	      2.44829513	      1.08622939	     11.17584428
